HIERARCHY
ROOT hip
{
  OFFSET 0 0 0
  CHANNELS 6 Xposition Yposition Zposition Zrotation Yrotation Xrotation
  JOINT abdomen
  {
    OFFSET 0 20.6881 -0.73152
    CHANNELS 3 Zrotation Xrotation Yrotation
    JOINT chest
    {
      OFFSET 0 11.7043 -0.48768
      CHANNELS 3 Zrotation Xrotation Yrotation
      JOINT neck
      {
        OFFSET 0 22.1894 -2.19456
        CHANNELS 3 Zrotation Xrotation Yrotation
        JOINT head
        {
          OFFSET -0.24384 7.07133 1.2192
          CHANNELS 3 Zrotation Xrotation Yrotation
          JOINT leftEye
          {
            OFFSET 4.14528 8.04674 8.04672
            CHANNELS 3 Zrotation Xrotation Yrotation
            End Site
            {
              OFFSET 1 0 0
            }
          }
          JOINT rightEye
          {
            OFFSET -3.6576 8.04674 8.04672
            CHANNELS 3 Zrotation Xrotation Yrotation
            End Site
            {
              OFFSET 1 0 0
            }
          }
        }
      }
      JOINT rCollar
      {
        OFFSET -2.68224 19.2634 -4.8768
        CHANNELS 3 Zrotation Xrotation Yrotation
        JOINT rShldr
        {
          OFFSET -8.77824 -1.95073 1.46304
          CHANNELS 3 Zrotation Xrotation Yrotation
          JOINT rForeArm
          {
            OFFSET -28.1742 -1.7115 0.48768
            CHANNELS 3 Zrotation Xrotation Yrotation
            JOINT rHand
            {
              OFFSET -22.5879 0.773209 7.07136
              CHANNELS 3 Zrotation Xrotation Yrotation
              JOINT rThumb1
              {
                OFFSET -1.2192 -0.487915 3.41376
                CHANNELS 3 Zrotation Xrotation Yrotation
                JOINT rThumb2
                {
                  OFFSET -3.37035 -0.52449 3.41376
                  CHANNELS 3 Zrotation Xrotation Yrotation
                  End Site
                  {
                    OFFSET -1.78271 -1.18214 1.43049
                  }
                }
              }
              JOINT rIndex1
              {
                OFFSET -7.75947 0.938293 5.60832
                CHANNELS 3 Zrotation Xrotation Yrotation
                JOINT rIndex2
                {
                  OFFSET -2.54057 -0.884171 1.56538
                  CHANNELS 3 Zrotation Xrotation Yrotation
                  End Site
                  {
                    OFFSET -1.62519 -0.234802 1.16502
                  }
                }
              }
              JOINT rMid1
              {
                OFFSET -8.24714 1.18213 3.41376
                CHANNELS 3 Zrotation Xrotation Yrotation
                JOINT rMid2
                {
                  OFFSET -3.10165 -0.590103 1.0647
                  CHANNELS 3 Zrotation Xrotation Yrotation
                  End Site
                  {
                    OFFSET -2.48547 -0.328903 0.83742
                  }
                }
              }
              JOINT rRing1
              {
                OFFSET -8.82822 0.546677 1.51678
                CHANNELS 3 Zrotation Xrotation Yrotation
                JOINT rRing2
                {
                  OFFSET -2.60934 -0.819778 -0.0198488
                  CHANNELS 3 Zrotation Xrotation Yrotation
                  End Site
                  {
                    OFFSET -2.33842 -0.294052 0.168128
                  }
                }
              }
              JOINT rPinky1
              {
                OFFSET -8.27202 -0.0477905 -0.4584
                CHANNELS 3 Zrotation Xrotation Yrotation
                JOINT rPinky2
                {
                  OFFSET -1.82734 -0.647385 -0.700984
                  CHANNELS 3 Zrotation Xrotation Yrotation
                  End Site
                  {
                    OFFSET -1.69225 -0.51767 -0.607171
                  }
                }
              }
            }
          }
        }
      }
      JOINT lCollar
      {
        OFFSET 2.68224 19.2634 -4.8768
        CHANNELS 3 Zrotation Xrotation Yrotation
        JOINT lShldr
        {
          OFFSET 8.77824 -1.95073 1.46304
          CHANNELS 3 Zrotation Xrotation Yrotation
          JOINT lForeArm
          {
            OFFSET 28.1742 -1.7115 0.48768
            CHANNELS 3 Zrotation Xrotation Yrotation
            JOINT lHand
            {
              OFFSET 22.5879 0.773209 7.07136
              CHANNELS 3 Zrotation Xrotation Yrotation
              JOINT lThumb1
              {
                OFFSET 1.2192 -0.487915 3.41376
                CHANNELS 3 Zrotation Xrotation Yrotation
                JOINT lThumb2
                {
                  OFFSET 3.37035 -0.52449 3.41376
                  CHANNELS 3 Zrotation Xrotation Yrotation
                  End Site
                  {
                    OFFSET 1.78271 -1.18214 1.43049
                  }
                }
              }
              JOINT lIndex1
              {
                OFFSET 7.75947 0.938293 5.60832
                CHANNELS 3 Zrotation Xrotation Yrotation
                JOINT lIndex2
                {
                  OFFSET 2.54057 -0.884171 1.56538
                  CHANNELS 3 Zrotation Xrotation Yrotation
                  End Site
                  {
                    OFFSET 1.62519 -0.234802 1.16502
                  }
                }
              }
              JOINT lMid1
              {
                OFFSET 8.24714 1.18213 3.41376
                CHANNELS 3 Zrotation Xrotation Yrotation
                JOINT lMid2
                {
                  OFFSET 3.10165 -0.590103 1.0647
                  CHANNELS 3 Zrotation Xrotation Yrotation
                  End Site
                  {
                    OFFSET 2.48547 -0.328903 0.83742
                  }
                }
              }
              JOINT lRing1
              {
                OFFSET 8.82822 0.546677 1.51678
                CHANNELS 3 Zrotation Xrotation Yrotation
                JOINT lRing2
                {
                  OFFSET 2.60934 -0.819778 -0.0198488
                  CHANNELS 3 Zrotation Xrotation Yrotation
                  End Site
                  {
                    OFFSET 2.33842 -0.294052 0.168128
                  }
                }
              }
              JOINT lPinky1
              {
                OFFSET 8.27202 -0.0477905 -0.4584
                CHANNELS 3 Zrotation Xrotation Yrotation
                JOINT lPinky2
                {
                  OFFSET 1.82734 -0.647385 -0.700984
                  CHANNELS 3 Zrotation Xrotation Yrotation
                  End Site
                  {
                    OFFSET 1.69225 -0.51767 -0.607171
                  }
                }
              }
            }
          }
        }
      }
    }
  }
  JOINT rButtock
  {
    OFFSET -8.77824 4.35084 1.2192
    CHANNELS 3 Zrotation Xrotation Yrotation
    JOINT rThigh
    {
      OFFSET 0 -1.70687 -2.19456
      CHANNELS 3 Zrotation Xrotation Yrotation
      JOINT rShin
      {
        OFFSET 0 -36.8199 0.73152
        CHANNELS 3 Zrotation Xrotation Yrotation
        JOINT rFoot
        {
          OFFSET 0.73152 -45.1104 -5.12064
          CHANNELS 3 Zrotation Xrotation Yrotation
          End Site
          {
            OFFSET -1.1221 -3.69964 12.103
          }
        }
      }
    }
  }
  JOINT lButtock
  {
    OFFSET 8.77824 4.35084 1.2192
    CHANNELS 3 Zrotation Xrotation Yrotation
    JOINT lThigh
    {
      OFFSET 0 -1.70687 -2.19456
      CHANNELS 3 Zrotation Xrotation Yrotation
      JOINT lShin
      {
        OFFSET 0 -36.8199 0.73152
        CHANNELS 3 Zrotation Xrotation Yrotation
        JOINT lFoot
        {
          OFFSET -0.73152 -45.1104 -5.12064
          CHANNELS 3 Zrotation Xrotation Yrotation
          End Site
          {
            OFFSET 1.1221 -3.69964 12.103
          }
        }
      }
    }
  }
}
MOTION
Frames:	4
Frame Time:	0.03333
1.639585885219276 3.009690046310425 -21.26035651192069 -209.0943717956543 75.5089420080185 -169.14228916168213 -8.379948511719704 19.51640322804451 14.716248214244843 -2.3023029416799545 -14.91631954908371 13.799832612276077 6.325457543134689 15.186278522014618 10.17240509390831 -1.3397593796253204 -18.73458757996559 24.789013266563416 -1.2692472897469997 -2.6260214298963547 3.591597229242325 2.8456561267375946 5.697931945323944 3.4537799656391144 3.2998158037662506 -5.027320347726345 7.159266471862793 32.140856981277466 70.79324305057526 43.391355872154236 -29.65869516134262 -44.75788235664368 96.44317030906677 5.629420280456543 9.777641594409943 3.297221101820469 -3.7489399686455727 1.1542177386581898 4.5506612956523895 4.205248095095158 1.189284771680832 -1.7736873216927052 -2.9769355058670044 2.9508161544799805 -5.810162276029587 11.444336771965027 3.541974686086178 -5.03197330981493 -1.0872036684304476 -1.4161114767193794 -0.944414846599102 6.173022240400314 3.9727619290351868 1.9652223587036133 6.915595158934593 0.3355269134044647 -3.8210853561758995 16.140399277210236 7.991038262844086 4.243771322071552 6.850646138191223 0.3561698645353317 -0.5945176631212234 5.966738909482956 -1.1468381434679031 0.46628862619400024 3.1461644545197487 0.22414349019527435 -1.3039074651896954 -58.140013217926025 15.66425085067749 -13.889513611793518 27.528594732284546 -36.294981837272644 -99.2340624332428 7.550682574510574 -38.497877418994904 6.777020841836929 2.051517739892006 2.7413522265851498 3.9372840151190758 0.5618014186620712 -0.07377952337265015 0.9645947813987732 2.048608213663101 3.827204816043377 -0.4319213144481182 -9.976906925439835 5.722897946834564 0.04884176887571812 4.547627046704292 -3.618604391813278 0.2608354389667511 -1.684150155633688 7.05466702580452 0.999688133597374 -6.670572012662888 2.2157158702611923 3.9635351300239563 -6.929088681936264 -3.0989887565374374 -5.479952841997147 -7.845065742731094 -9.099000468850136 2.31319572776556 -5.578984692692757 -0.42184408754110336 -2.3220208659768105 3.688772991299629 -0.0034730415791273117 1.841503120958805 -69.94422733783722 -42.16507136821747 -45.484036803245544 -51.105029582977295 89.42121684551239 44.51007306575775 -3.994380533695221 -26.33334070444107 -12.800508588552475 8.792645260691643 9.071138352155685 3.316830061376095 63.810696601867676 -49.400662779808044 40.81662565469742 -3.741196095943451 78.08522522449493 4.163412004709244 0.24544961750507355 -10.774200931191444 -3.088889569044113
1.5507103307172656 2.3647468090057373 -21.58514004573226 -199.495689868927 71.0369324684143 -159.94325637817383 -8.04127536714077 18.71356576681137 14.332821071147919 -3.0382394045591354 -14.94173213839531 13.427945673465729 5.260965898633003 13.620675802230835 10.34132793545723 -0.7426339387893677 -19.080391377210617 23.445226550102234 -2.5099526904523373 -3.1129147857427597 4.23614077270031 2.7282908745110035 8.096813187003136 1.7546526901423931 3.376191034913063 -5.692012310028076 7.830094993114471 34.28215026855469 70.63433289527893 42.1658331155777 -27.268530428409576 -44.953941106796265 96.5117597579956 4.06470637768507 7.4569688737392426 2.3930370435118675 -3.2858505472540855 0.268788356333971 3.5708577185869217 3.5470373556017876 1.1899298429489136 -2.7993948943912983 -1.8801250867545605 3.0672991275787354 -6.307363361120224 11.83369293808937 5.149885229766369 -5.142786093056202 0.4371198546141386 -1.635335125029087 -0.9660562500357628 6.2674373388290405 3.119441270828247 2.7959487587213516 8.500268384814262 -2.1622292697429657 -1.5899092331528664 17.166772037744522 6.501603573560715 3.7081898376345634 6.931434273719788 -0.659983679652214 -0.45504413545131683 6.76723413169384 -2.2033606097102165 0.02155691385269165 2.6512378826737404 -0.20836137235164642 -1.932074110955 -59.948793053627014 13.30146074295044 -14.651974439620972 25.884915590286255 -35.407167971134186 -96.42781734466553 5.208552181720734 -37.48662292957306 4.806731790304184 0.48417359590530396 2.4457513354718685 4.709998928010464 0.2999185770750046 -0.8897638320922852 1.3916051387786865 1.7708078026771545 3.79790972918272 -0.6077619083225727 -10.392635241150856 6.024207919836044 1.8906770646572113 5.153454914689064 -3.950500935316086 0.5375683307647705 0.32494375482201576 7.162384539842606 1.4134235680103302 -6.472466737031937 1.110917329788208 4.108664765954018 -5.879477262496948 -1.3465708494186401 -5.41258379817009 -7.490206807851791 -7.959895133972168 2.410813719034195 -4.563501700758934 -1.3362406566739082 -3.709096424281597 3.8174784556031227 1.013778867200017 1.176183857023716 -74.39992368221283 -42.32806921005249 -47.84771740436554 -55.9645539522171 87.62070894241333 51.4141970872879 -3.911932110786438 -25.443769991397858 -11.258388608694077 8.383519873023033 8.944617211818695 2.3758286610245705 68.11942934989929 -49.89346504211426 43.195761144161224 -0.41862040758132935 79.76908922195435 0.2694956213235855 -2.265985831618309 -11.937793493270874 -6.184312999248505
1.4714157534763217 1.7660508155822754 -21.910325672477484 -201.4585518836975 70.96526384353638 -168.4886133670807 -10.862759426236153 18.735793232917786 14.147169291973114 -4.093597456812859 -14.317765831947327 9.421119019389153 3.6900581046938896 14.294513761997223 9.891516119241714 0.4051932692527771 -19.497877210378647 23.172569274902344 -2.069257702678442 -3.905431106686592 3.8262449204921722 3.909520134329796 9.198863133788109 -1.0956503637135029 2.815471887588501 -5.456063076853752 5.247899852693081 33.481993675231934 72.6092541217804 43.491756319999695 -27.137523293495178 -46.28214955329895 95.26101350784302 1.2353339418768883 8.139080107212067 4.301884733140469 -2.244894616305828 1.5260684676468372 4.3228961527347565 4.002013094723225 -0.7077565044164658 -6.11213743686676 -1.974147241562605 1.6541379131376743 -5.257789492607117 13.118963241577148 8.401314318180084 -5.462770946323872 -1.4925631508231163 -1.1567381769418716 -0.32125890254974365 4.997416064143181 2.1714574098587036 3.1016086041927338 6.991296485066414 -3.496183007955551 1.6992206498980522 16.751808822155 3.556188717484474 3.641991578042507 5.955709666013718 -0.8081140369176865 0.3699309378862381 4.682707786560059 -3.0776675418019295 -1.3361404091119766 2.2723671421408653 0.5623217672109604 -4.350615441799164 -60.93298673629761 6.173151656985283 -14.998263716697693 26.22881770133972 -37.98518121242523 -95.58529257774353 5.186149030923843 -41.74184560775757 4.286061376333237 1.2507234513759613 3.676568940281868 5.164794288575649 -2.2537053376436234 0.2924244850873947 2.829051911830902 3.330431208014488 3.486373834311962 -2.2784274257719517 -11.585404872894287 5.271552577614784 3.975488394498825 5.0375620275735855 -3.384585678577423 2.0081739127635956 2.491036746650934 6.105478852987289 0.7792937010526657 -7.3513515293598175 -1.353464461863041 3.966928794980049 -6.107506603002548 2.2988710552453995 -4.357074201107025 -6.163658648729324 -6.3367073982954025 0.49247637391090393 -3.700522407889366 -3.1076278164982796 -3.694140426814556 2.745656333863735 1.592591442167759 -0.18108900636434555 -77.85541892051697 -38.75728726387024 -49.44796085357666 -67.17753410339355 86.37203872203827 67.15175271034241 -2.537449188530445 -25.08743315935135 -10.589292123913765 7.001463398337364 6.006253212690353 2.6043937727808952 73.83870363235474 -51.520986557006836 45.44553101062775 4.500707164406776 80.96954941749573 -6.642962694168091 -5.7972655445337296 -13.337261527776718 -9.512564241886139
1.3925793347880244 1.0957989692687988 -22.230339106172323 -187.25204944610596 65.57997286319733 -158.225280046463 -11.696016490459442 17.910590171813965 12.444928139448166 -4.077577963471413 -14.144458919763565 7.55192443728447 3.583051711320877 14.298644363880157 9.703969359397888 -0.36135390400886536 -18.777387589216232 23.39642643928528 -2.4861266277730465 -4.899502024054527 3.454897105693817 4.801940694451332 8.70933786034584 -2.739828396588564 4.215239658951759 -5.337813533842564 5.061590261757374 34.8284974694252 71.70753836631775 44.334189891815186 -25.221656262874603 -43.90082001686096 89.7088086605072 -0.8354118838906288 5.971596390008926 6.8425291031599045 -2.805880643427372 1.7994043417274952 2.5427716970443726 3.1843597814440727 -0.1504625380039215 -4.951002448797226 -1.5138238482177258 -0.08583789691329002 -4.647763967514038 12.630971521139145 10.780437737703323 -3.7910479679703712 -2.44379248470068 0.39637689013034105 0.32155629247426987 5.813828855752945 0.2382887899875641 1.9394932687282562 4.430300518870354 -4.567105919122696 2.4125437438488007 15.560221374034882 1.8231963738799095 3.2912062481045723 4.211943559348583 -1.416744813323021 0.6407978385686874 3.1492479890584946 -1.5899910405278206 0.1364164799451828 0.9702693298459053 0.5685820430517197 -4.386169463396072 -63.69301199913025 1.8210382014513016 -14.533587098121643 25.838218331336975 -38.63646179437637 -92.9701280593872 3.6094319075345993 -41.173520386219025 1.548732966184616 2.1242934465408325 4.500889554619789 4.567390568554401 -1.554059162735939 -0.43605878949165344 4.433203339576721 3.9781900495290756 3.236888162791729 -3.230659067630768 -11.226908192038536 6.251344755291939 4.941893666982651 3.8718223571777344 -2.899176925420761 2.3478206992149353 1.8048887886106968 6.28716766834259 0.6186260282993317 -6.729219853878021 -3.416050672531128 1.25996139831841 -6.6382889449596405 3.9422088861465454 -2.3739762604236603 -4.877489805221558 -4.6984972804784775 -0.6126547604799271 -2.632675990462303 -3.784307576715946 -2.6784254238009453 2.0906370878219604 1.424337811768055 -0.016021840274333954 -77.72852897644043 -34.833279848098755 -49.69491720199585 -75.0676703453064 84.36180353164673 77.82635986804962 -1.9923944771289825 -24.86579418182373 -8.59710618853569 5.80885536968708 4.375647157430649 2.699413038790226 72.4954104423523 -50.78899562358856 48.17236125469208 9.928812235593796 82.84937560558319 -12.389093935489655 -7.159639969468117 -14.96487021446228 -9.345932006835938
